<mxfile host="app.diagrams.net" agent="Mozilla/5.0 (Macintosh; Intel Mac OS X 10_15_7) AppleWebKit/537.36 (KHTML, like Gecko) Chrome/135.0.0.0 Safari/537.36" version="26.2.14">
  <diagram name="第 1 页" id="hzgeKIVSQyJ2sHq0_jEK">
    <mxGraphModel dx="1018" dy="689" grid="1" gridSize="10" guides="1" tooltips="1" connect="1" arrows="1" fold="1" page="1" pageScale="1" pageWidth="827" pageHeight="1169" math="0" shadow="0">
      <root>
        <mxCell id="0" />
        <mxCell id="1" parent="0" />
        <mxCell id="7dZvwmrXYKT28rzgf9l6-1" value="" style="rounded=1;whiteSpace=wrap;html=1;fillColor=#dae8fc;strokeColor=#6c8ebf;" vertex="1" parent="1">
          <mxGeometry x="80" y="170" width="300" height="170" as="geometry" />
        </mxCell>
        <mxCell id="7dZvwmrXYKT28rzgf9l6-9" style="edgeStyle=orthogonalEdgeStyle;rounded=0;orthogonalLoop=1;jettySize=auto;html=1;" edge="1" parent="1" source="7dZvwmrXYKT28rzgf9l6-2" target="7dZvwmrXYKT28rzgf9l6-7">
          <mxGeometry relative="1" as="geometry" />
        </mxCell>
        <mxCell id="7dZvwmrXYKT28rzgf9l6-2" value="" style="rounded=0;whiteSpace=wrap;html=1;fillColor=#ffe6cc;strokeColor=#d79b00;" vertex="1" parent="1">
          <mxGeometry x="100" y="225" width="170" height="105" as="geometry" />
        </mxCell>
        <mxCell id="7dZvwmrXYKT28rzgf9l6-3" value="" style="rounded=0;whiteSpace=wrap;html=1;" vertex="1" parent="1">
          <mxGeometry x="120" y="250" width="140" height="70" as="geometry" />
        </mxCell>
        <mxCell id="7dZvwmrXYKT28rzgf9l6-4" value="容器" style="text;html=1;align=center;verticalAlign=middle;whiteSpace=wrap;rounded=0;" vertex="1" parent="1">
          <mxGeometry x="90" y="225" width="60" height="30" as="geometry" />
        </mxCell>
        <mxCell id="7dZvwmrXYKT28rzgf9l6-5" value="pod" style="text;html=1;align=center;verticalAlign=middle;whiteSpace=wrap;rounded=0;" vertex="1" parent="1">
          <mxGeometry x="190" y="170" width="60" height="30" as="geometry" />
        </mxCell>
        <mxCell id="7dZvwmrXYKT28rzgf9l6-6" value="&lt;span style=&quot;background-color: light-dark(#ffffff, var(--ge-dark-color, #121212));&quot;&gt;&lt;span style=&quot;font-variant-ligatures: no-common-ligatures; white-space: pre; background-color: rgba(0, 0, 0, 0.05);&quot;&gt;volumeMounts:&lt;/span&gt;&lt;br style=&quot;font-variant-ligatures: no-common-ligatures; white-space: pre; background-color: rgba(0, 0, 0, 0.05);&quot;&gt;&lt;span style=&quot;font-variant-ligatures: no-common-ligatures; white-space: pre; background-color: rgba(0, 0, 0, 0.05);&quot;&gt;    - name: pvc-volume&lt;/span&gt;&lt;br style=&quot;font-variant-ligatures: no-common-ligatures; white-space: pre; background-color: rgba(0, 0, 0, 0.05);&quot;&gt;&lt;span style=&quot;font-variant-ligatures: no-common-ligatures; white-space: pre; background-color: rgba(0, 0, 0, 0.05);&quot;&gt;      mountPath: /usr/share&lt;/span&gt;&lt;/span&gt;&lt;div&gt;&lt;span style=&quot;font-variant-ligatures: no-common-ligatures; white-space: pre; background-color: light-dark(#ffffff, var(--ge-dark-color, #121212));&quot;&gt;                      /nginx/html&lt;/span&gt;&lt;/div&gt;" style="text;html=1;align=left;verticalAlign=middle;whiteSpace=wrap;rounded=0;" vertex="1" parent="1">
          <mxGeometry x="119" y="255" width="150" height="60" as="geometry" />
        </mxCell>
        <mxCell id="7dZvwmrXYKT28rzgf9l6-7" value="存储卷&lt;div&gt;&lt;span style=&quot;font-variant-ligatures: no-common-ligatures; text-align: start; white-space: pre;&quot;&gt;&lt;font style=&quot;&quot;&gt;ebs-volume&lt;/font&gt;&lt;/span&gt;&lt;/div&gt;" style="shape=cylinder3;whiteSpace=wrap;html=1;boundedLbl=1;backgroundOutline=1;size=15;fillColor=#f8cecc;strokeColor=#b85450;" vertex="1" parent="1">
          <mxGeometry x="300" y="241.25" width="70" height="72.5" as="geometry" />
        </mxCell>
        <mxCell id="7dZvwmrXYKT28rzgf9l6-10" value="&lt;span style=&quot;color: rgb(77, 77, 77); font-family: -apple-system, &amp;quot;SF UI Text&amp;quot;, Arial, &amp;quot;PingFang SC&amp;quot;, &amp;quot;Hiragino Sans GB&amp;quot;, &amp;quot;Microsoft YaHei&amp;quot;, &amp;quot;WenQuanYi Micro Hei&amp;quot;, sans-serif; font-size: 16px; font-variant-ligatures: no-common-ligatures; text-align: start;&quot;&gt;AWS EBS持久磁盘&lt;/span&gt;" style="shape=cylinder3;whiteSpace=wrap;html=1;boundedLbl=1;backgroundOutline=1;size=15;fillColor=#e1d5e7;strokeColor=#9673a6;" vertex="1" parent="1">
          <mxGeometry x="590" y="220" width="180" height="115" as="geometry" />
        </mxCell>
        <mxCell id="7dZvwmrXYKT28rzgf9l6-11" style="edgeStyle=orthogonalEdgeStyle;rounded=0;orthogonalLoop=1;jettySize=auto;html=1;entryX=0;entryY=0.5;entryDx=0;entryDy=0;entryPerimeter=0;dashed=1;" edge="1" parent="1" source="7dZvwmrXYKT28rzgf9l6-7" target="7dZvwmrXYKT28rzgf9l6-10">
          <mxGeometry relative="1" as="geometry" />
        </mxCell>
        <mxCell id="7dZvwmrXYKT28rzgf9l6-12" value="&lt;span style=&quot;font-variant-ligatures: no-common-ligatures; text-align: start; white-space: pre; background-color: rgb(255, 255, 255);&quot;&gt;&lt;font face=&quot;Helvetica&quot; style=&quot;&quot;&gt;awsElasticBlockStore:&lt;br&gt;      volumeID: vol-xxxxxxx&lt;/font&gt;&lt;/span&gt;" style="text;html=1;align=center;verticalAlign=middle;whiteSpace=wrap;rounded=0;" vertex="1" parent="1">
          <mxGeometry x="413.5" y="240" width="130" height="30" as="geometry" />
        </mxCell>
      </root>
    </mxGraphModel>
  </diagram>
</mxfile>
